<svg xmlns="http://www.w3.org/2000/svg" width="1024" height="640" viewBox="0 0 1024 640">
  <defs>
    <linearGradient id="bg" x1="0" y1="0" x2="1" y2="1">
      <stop offset="0" stop-color="#0f172a"/>
      <stop offset="1" stop-color="#1e1b4b"/>
    </linearGradient>
    <linearGradient id="a" x1="0" y1="0" x2="1" y2="1">
      <stop offset="0" stop-color="#6366f1"/>
      <stop offset="1" stop-color="#8b5cf6"/>
    </linearGradient>
  </defs>
  <rect width="1024" height="640" fill="url(#bg)"/>
  <g opacity="0.15" stroke="#818cf8" stroke-width="1">
    <path d="M0 160 H1024 M0 320 H1024 M0 480 H1024 M256 0 V640 M768 0 V640"/>
  </g>
  <g fill="none" stroke="url(#a)" stroke-width="10" stroke-linecap="round">
    <rect x="292" y="180" rx="24" ry="24" width="260" height="120" fill="#1e293b"/>
    <rect x="472" y="340" rx="24" ry="24" width="260" height="120" fill="#1e293b"/>
  </g>
  <circle cx="352" cy="240" r="14" fill="url(#a)"/>
  <rect x="384" y="226" width="130" height="14" rx="7" fill="#818cf8" opacity="0.7"/>
  <rect x="384" y="252" width="90" height="12" rx="6" fill="#475569"/>
  <circle cx="532" cy="400" r="14" fill="url(#a)"/>
  <rect x="564" y="386" width="130" height="14" rx="7" fill="#818cf8" opacity="0.7"/>
  <rect x="564" y="412" width="90" height="12" rx="6" fill="#475569"/>
  <path d="M560 260 L560 340 M560 300 L620 300" stroke="#8b5cf6" stroke-width="8" fill="none" stroke-linecap="round" stroke-dasharray="4 14"/>
</svg>
